<svg aria-hidden="true" style="position: absolute; width: 0; height: 0; overflow: hidden;" version="1.1" xmlns="http://www.w3.org/2000/svg" xmlns:xlink="http://www.w3.org/1999/xlink">
<defs>
<symbol id="dropdown" viewBox="0 0 32 32">
<path fill="#8c8c8c" style="fill: var(--color1, #8c8c8c)" d="M17.584 24.464l13.759-13.76c0.875-0.875 0.875-2.294 0-3.169s-2.294-0.875-3.169 0l-12.175 12.175-12.174-12.175c-0.875-0.875-2.294-0.875-3.169 0s-0.875 2.294 0 3.169l13.759 13.76c0.438 0.438 1.011 0.656 1.584 0.656s1.147-0.219 1.584-0.656z"></path>
</symbol>
<symbol id="favorite-color" viewBox="0 0 32 32">
<path d="M8.609 2.133c-4.755 0-8.609 3.854-8.609 8.609 0 2.283 0.907 4.473 2.522 6.088l12.724 12.724c0.417 0.417 1.092 0.417 1.508 0l12.724-12.724c1.615-1.614 2.522-3.804 2.522-6.088 0-4.755-3.854-8.609-8.609-8.609-2.283 0-4.473 0.907-6.088 2.522l-1.303 1.303-1.303-1.303c-1.614-1.615-3.804-2.522-6.088-2.522z"></path>
</symbol>
<symbol id="back" viewBox="0 0 32 32">
<path d="M7.536 17.584l13.759 13.759c0.875 0.876 2.294 0.876 3.169 0s0.875-2.294 0-3.169l-12.175-12.175 12.175-12.174c0.875-0.875 0.875-2.294 0-3.169s-2.294-0.875-3.169 0l-13.76 13.759c-0.437 0.438-0.656 1.011-0.656 1.584s0.219 1.147 0.656 1.584z"></path>
</symbol>
<symbol id="close" viewBox="0 0 32 32">
<path d="M14.323 16l-13.384-13.384 1.676-1.676 13.384 13.384 13.384-13.384 1.676 1.676-13.384 13.384 13.384 13.384-1.676 1.676-13.384-13.384-13.384 13.384-1.676-1.676 13.384-13.384z"></path>
</symbol>
<symbol id="dislikes" viewBox="0 0 32 32">
<path d="M0 16c0-8.837 7.163-16 16-16s16 7.163 16 16c0 8.837-7.163 16-16 16s-16-7.163-16-16zM16 2.133c-7.658 0-13.867 6.208-13.867 13.867s6.208 13.867 13.867 13.867c7.658 0 13.867-6.208 13.867-13.867s-6.208-13.867-13.867-13.867zM10.667 12.8h-2.133v-2.133h2.133v2.133zM23.467 12.8h-2.133v-2.133h2.133v2.133zM8.107 21.547l0.64-0.853c3.627-4.836 10.88-4.836 14.507 0l0.64 0.853-1.707 1.28-0.64-0.853c-2.773-3.698-8.32-3.698-11.093 0l-0.64 0.853-1.707-1.28z"></path>
</symbol>
<symbol id="error" viewBox="0 0 32 32">
<path d="M0 16c0-8.837 7.163-16 16-16s16 7.163 16 16c0 8.836-7.164 16-16 16s-16-7.164-16-16zM16 2.133c-7.658 0-13.867 6.208-13.867 13.867s6.208 13.867 13.867 13.867c7.658 0 13.867-6.208 13.867-13.867s-6.208-13.867-13.867-13.867zM14.492 16l-5.646-5.646 1.508-1.508 5.646 5.646 5.646-5.646 1.508 1.508-5.646 5.646 5.646 5.646-1.508 1.508-5.646-5.646-5.646 5.646-1.508-1.508 5.646-5.646z"></path>
</symbol>
<symbol id="favorites" viewBox="0 0 32 32">
<path d="M8.609 4.267c-3.576 0-6.476 2.899-6.476 6.476 0 1.717 0.682 3.365 1.897 4.579l11.97 11.97 11.97-11.97c1.215-1.214 1.897-2.862 1.897-4.579 0-3.576-2.899-6.476-6.476-6.476-1.717 0-3.365 0.682-4.579 1.897l-2.058 2.058c-0.417 0.417-1.092 0.417-1.508 0l-2.057-2.058c-1.214-1.214-2.862-1.897-4.579-1.897zM0 10.742c0-4.755 3.854-8.609 8.609-8.609 2.283 0 4.473 0.907 6.088 2.522l1.303 1.303 1.303-1.303c1.614-1.615 3.804-2.522 6.088-2.522 4.755 0 8.609 3.854 8.609 8.609 0 2.283-0.907 4.473-2.522 6.088l-12.724 12.724c-0.417 0.417-1.092 0.417-1.508 0l-12.724-12.724c-1.615-1.614-2.522-3.804-2.522-6.088z"></path>
</symbol>
<symbol id="likes" viewBox="0 0 32 32">
<path d="M0 16c0-8.837 7.163-16 16-16s16 7.163 16 16c0 8.837-7.163 16-16 16s-16-7.163-16-16zM16 2.133c-7.658 0-13.867 6.208-13.867 13.867s6.208 13.867 13.867 13.867c7.658 0 13.867-6.208 13.867-13.867s-6.208-13.867-13.867-13.867zM10.667 12.8h-2.133v-2.133h2.133v2.133zM23.467 12.8h-2.133v-2.133h2.133v2.133zM9.813 17.707l0.64 0.853c2.773 3.698 8.32 3.698 11.093 0l0.64-0.853 1.707 1.28-0.64 0.853c-3.627 4.836-10.88 4.836-14.507 0l-0.64-0.853 1.707-1.28z"></path>
</symbol>
<symbol id="search" viewBox="0 0 32 32">
<path d="M30.978 29.147l-7.616-7.921c1.958-2.328 3.031-5.257 3.031-8.306 0-7.124-5.796-12.92-12.92-12.92s-12.92 5.796-12.92 12.92c0 7.124 5.796 12.92 12.92 12.92 2.674 0 5.223-0.807 7.402-2.338l7.674 7.981c0.321 0.333 0.752 0.517 1.214 0.517 0.438 0 0.853-0.167 1.168-0.47 0.67-0.644 0.691-1.713 0.047-2.383zM13.473 3.37c5.266 0 9.55 4.284 9.55 9.55s-4.284 9.55-9.55 9.55-9.55-4.284-9.55-9.55c0-5.266 4.284-9.55 9.55-9.55z"></path>
</symbol>
<symbol id="sort-down" viewBox="0 0 20 20">
<path fill-rule="evenodd" clip-rule="evenodd" d="M3.80474 17.7239V0H5.13807V17.7239L8 14.8619L8.94281 15.8047L4.94281 19.8047C4.81778 19.9298 4.64822 20 4.4714 20C4.29459 20 4.12502 19.9298 4 19.8047L0 15.8047L0.942809 14.8619L3.80474 17.7239ZM15.1381 1.33333C14.0335 1.33333 13.1381 2.22876 13.1381 3.33333V5.33333H17.1381V3.33333C17.1381 2.22876 16.2426 1.33333 15.1381 1.33333ZM17.1381 6.66667V9.33333H18.4714V3.33333C18.4714 1.49238 16.979 0 15.1381 0C13.2971 0 11.8047 1.49238 11.8047 3.33333V9.33333H13.1381V6.66667H17.1381ZM11.8047 10.6667H15.8047C17.2775 10.6667 18.4714 11.8606 18.4714 13.3333C18.4714 14.1298 18.1222 14.8447 17.5686 15.3333C18.1222 15.822 18.4714 16.5369 18.4714 17.3333C18.4714 18.8061 17.2775 20 15.8047 20H11.8047V10.6667ZM15.8047 14.6667C16.5411 14.6667 17.1381 14.0697 17.1381 13.3333C17.1381 12.597 16.5411 12 15.8047 12H13.1381V14.6667H15.8047ZM13.1381 16H15.8047C16.5411 16 17.1381 16.597 17.1381 17.3333C17.1381 18.0697 16.5411 18.6667 15.8047 18.6667H13.1381V16Z"/>
</symbol>
<symbol id="sort-up" viewBox="0 0 20 20">
<path fill-rule="evenodd" clip-rule="evenodd" d="M4 0.195262C4.26035 -0.0650874 4.68246 -0.0650874 4.94281 0.195262L8.94281 4.19526L8 5.13807L5.13807 2.27614V20H3.80474V2.27614L0.942809 5.13807L0 4.19526L4 0.195262ZM15.1381 1.33333C14.0335 1.33333 13.1381 2.22876 13.1381 3.33333V5.33333H17.1381V3.33333C17.1381 2.22876 16.2426 1.33333 15.1381 1.33333ZM17.1381 6.66667V9.33333H18.4714V3.33333C18.4714 1.49238 16.979 9.93411e-09 15.1381 9.93411e-09C13.2971 9.93411e-09 11.8047 1.49238 11.8047 3.33333V9.33333H13.1381V6.66667H17.1381ZM11.8047 10.6667H15.8047C17.2775 10.6667 18.4714 11.8606 18.4714 13.3333C18.4714 14.1298 18.1222 14.8447 17.5686 15.3333C18.1222 15.822 18.4714 16.5369 18.4714 17.3333C18.4714 18.8061 17.2775 20 15.8047 20H11.8047V10.6667ZM15.8047 14.6667C16.5411 14.6667 17.1381 14.0697 17.1381 13.3333C17.1381 12.597 16.5411 12 15.8047 12H13.1381V14.6667H15.8047ZM13.1381 16H15.8047C16.5411 16 17.1381 16.597 17.1381 17.3333C17.1381 18.0697 16.5411 18.6667 15.8047 18.6667H13.1381V16Z" />
</symbol>
<symbol id="success" viewBox="0 0 32 32">
<path d="M0 16c0-8.837 7.163-16 16-16s16 7.163 16 16c0 8.836-7.164 16-16 16s-16-7.164-16-16zM16 2.133c-7.658 0-13.867 6.208-13.867 13.867s6.208 13.867 13.867 13.867c7.658 0 13.867-6.208 13.867-13.867s-6.208-13.867-13.867-13.867zM24.3 11.333l-9.213 11.516-7.236-6.030 1.366-1.639 5.564 4.637 7.854-9.817 1.666 1.333z"></path>
</symbol>
<symbol id="update" viewBox="0 0 32 32">
<path d="M15.171 4l-2.477-2.475 1.524-1.525 5.074 5.071-5.074 5.071-1.524-1.525 2.461-2.46c-6.336 0.24-11.4 5.451-11.4 11.839 0 6.541 5.309 11.848 11.856 11.848s11.856-5.307 11.856-11.848v-1.078h2.156v1.078c0 7.733-6.276 14.004-14.012 14.004s-14.012-6.27-14.012-14.004c0-7.586 6.038-13.764 13.571-13.997z"></path>
</symbol>
<symbol id="upload" viewBox="0 0 32 32">
<path d="M15.732 0l8.739 8.067-1.645 1.782-5.847-5.398v20.272h-2.425v-20.114l-5.206 5.206-1.715-1.715 8.1-8.1zM2.425 29.575v-14.553h-2.425v16.978h31.531v-16.978h-2.425v14.553h-26.68z"></path>
</symbol>
<symbol id="load" viewBox="0 0 32 32">
<path d="M22.4 6.4c-1.767 0-3.2 1.433-3.2 3.2s1.433 3.2 3.2 3.2c1.767 0 3.2-1.433 3.2-3.2s-1.433-3.2-3.2-3.2z"></path>
<path d="M0 3.2v25.6c0 1.767 1.433 3.2 3.2 3.2h25.6c1.219 0 2.28-0.682 2.82-1.686 0.145-0.269 0.252-0.561 0.315-0.869 0.043-0.208 0.065-0.424 0.065-0.645v-25.6c0-1.767-1.433-3.2-3.2-3.2h-25.6c-1.767 0-3.2 1.433-3.2 3.2zM10.345 6.703l-0.745-0.745-7.467 7.467v-10.225c0-0.589 0.478-1.067 1.067-1.067h25.6c0.589 0 1.067 0.478 1.067 1.067v18.133h-4.892l-14.621-14.621c-0.003-0.003-0.006-0.006-0.009-0.009z"></path>
</symbol>
<symbol id="menu" viewBox="0 0 53 32">
<path d="M53.333 3.556h-53.333v-3.556h53.333v3.556zM53.333 17.778h-53.333v-3.556h53.333v3.556zM53.333 32h-53.333v-3.556h53.333v3.556z"></path>
</symbol>
</defs>
</svg>
